# xmcd
#
# Track frame offsets:
#	150
#	33485
#	59500
#	81098
#	125213
#	168959
#	203227
#	230914
#	263452
#	278112
#
# Disc length: 4225 seconds
#
# Revision: 1
# Processed by: cddbd v1.4PL0 Copyright (c) Steve Scherf et al.
# Submitted via: audiograbber 1.82.02
#
DISCID=8f107f0a
DTITLE=Joe Vicino and the Smoke Daddys - One Night Stand
DYEAR=2002
DGENRE=Blues
TTITLE0=Hideaway - Walking By Myself
TTITLE1=Key To The Highway
TTITLE2=If You Love Me Like You Say
TTITLE3=It's My Own Fault
TTITLE4=Walkin' Blues - It Hurts Me Too
TTITLE5=We Once Knew
TTITLE6=Matchbox
TTITLE7=Nobody Knows You When You're Down and Out
TTITLE8=Korina
TTITLE9=Too Rolling Stoned
EXTD=
EXTT0=
EXTT1=
EXTT2=
EXTT3=
EXTT4=
EXTT5=
EXTT6=
EXTT7=
EXTT8=
EXTT9=
PLAYORDER=
